<mxfile host="65bd71144e">
    <diagram id="pSlrKj94XbHBtU99Xq5c" name="Page-1">
        <mxGraphModel dx="1383" dy="-1508" grid="1" gridSize="10" guides="1" tooltips="1" connect="1" arrows="1" fold="1" page="1" pageScale="1" pageWidth="850" pageHeight="1100" math="0" shadow="0">
            <root>
                <mxCell id="0"/>
                <mxCell id="1" parent="0"/>
                <mxCell id="2" value="" style="swimlane;startSize=0;strokeColor=#CC0000;" vertex="1" parent="1">
                    <mxGeometry x="425" y="2210" width="350" height="510" as="geometry">
                        <mxRectangle x="480" y="1600" width="50" height="40" as="alternateBounds"/>
                    </mxGeometry>
                </mxCell>
                <mxCell id="3" value="Settings&amp;nbsp; 1️⃣" style="text;html=1;align=center;verticalAlign=middle;resizable=0;points=[];autosize=1;strokeColor=none;fillColor=none;fontSize=35;rotation=0;" vertex="1" parent="2">
                    <mxGeometry x="90" y="-1" width="210" height="60" as="geometry"/>
                </mxCell>
                <mxCell id="4" value="Settings ⚡" style="swimlane;fontStyle=2;align=center;verticalAlign=middle;childLayout=stackLayout;horizontal=1;startSize=26;horizontalStack=0;resizeParent=1;resizeLast=0;collapsible=1;marginBottom=0;rounded=0;shadow=0;strokeWidth=1;fontSize=16;" vertex="1" parent="2">
                    <mxGeometry x="20" y="70" width="305" height="138" as="geometry">
                        <mxRectangle x="25" y="101.5" width="160" height="26" as="alternateBounds"/>
                    </mxGeometry>
                </mxCell>
                <mxCell id="5" value="" style="line;html=1;strokeWidth=1;align=left;verticalAlign=middle;spacingTop=-1;spacingLeft=3;spacingRight=3;rotatable=0;labelPosition=right;points=[];portConstraint=eastwest;fontSize=16;" vertex="1" parent="4">
                    <mxGeometry y="26" width="305" height="8" as="geometry"/>
                </mxCell>
                <mxCell id="6" value="- settings_id" style="text;align=left;verticalAlign=middle;spacingLeft=4;spacingRight=4;overflow=hidden;rotatable=0;points=[[0,0.5],[1,0.5]];portConstraint=eastwest;fontSize=16;" vertex="1" parent="4">
                    <mxGeometry y="34" width="305" height="26" as="geometry"/>
                </mxCell>
                <mxCell id="7" value="- type ⚡ [ privacyPolicy / toc / aboutUs ]" style="text;align=left;verticalAlign=middle;spacingLeft=4;spacingRight=4;overflow=hidden;rotatable=0;points=[[0,0.5],[1,0.5]];portConstraint=eastwest;fontSize=16;" vertex="1" parent="4">
                    <mxGeometry y="60" width="305" height="26" as="geometry"/>
                </mxCell>
                <mxCell id="8" value="- details⚡ string" style="text;align=left;verticalAlign=middle;spacingLeft=4;spacingRight=4;overflow=hidden;rotatable=0;points=[[0,0.5],[1,0.5]];portConstraint=eastwest;fontSize=16;" vertex="1" parent="4">
                    <mxGeometry y="86" width="305" height="26" as="geometry"/>
                </mxCell>
                <mxCell id="9" value="-  isDeleted ⚡ boolean" style="text;align=left;verticalAlign=top;spacingLeft=4;spacingRight=4;overflow=hidden;rotatable=0;points=[[0,0.5],[1,0.5]];portConstraint=eastwest;fontSize=16;" vertex="1" parent="4">
                    <mxGeometry y="112" width="305" height="26" as="geometry"/>
                </mxCell>
                <mxCell id="10" value="contactUs⚡" style="swimlane;fontStyle=2;align=center;verticalAlign=middle;childLayout=stackLayout;horizontal=1;startSize=26;horizontalStack=0;resizeParent=1;resizeLast=0;collapsible=1;marginBottom=0;rounded=0;shadow=0;strokeWidth=1;fontSize=16;" vertex="1" parent="2">
                    <mxGeometry x="22.5" y="228" width="305" height="164" as="geometry">
                        <mxRectangle x="25" y="101.5" width="160" height="26" as="alternateBounds"/>
                    </mxGeometry>
                </mxCell>
                <mxCell id="11" value="" style="line;html=1;strokeWidth=1;align=left;verticalAlign=middle;spacingTop=-1;spacingLeft=3;spacingRight=3;rotatable=0;labelPosition=right;points=[];portConstraint=eastwest;fontSize=16;" vertex="1" parent="10">
                    <mxGeometry y="26" width="305" height="8" as="geometry"/>
                </mxCell>
                <mxCell id="12" value="- contactUsId" style="text;align=left;verticalAlign=middle;spacingLeft=4;spacingRight=4;overflow=hidden;rotatable=0;points=[[0,0.5],[1,0.5]];portConstraint=eastwest;fontSize=16;" vertex="1" parent="10">
                    <mxGeometry y="34" width="305" height="26" as="geometry"/>
                </mxCell>
                <mxCell id="13" value="- email ⚡ string" style="text;align=left;verticalAlign=middle;spacingLeft=4;spacingRight=4;overflow=hidden;rotatable=0;points=[[0,0.5],[1,0.5]];portConstraint=eastwest;fontSize=16;" vertex="1" parent="10">
                    <mxGeometry y="60" width="305" height="26" as="geometry"/>
                </mxCell>
                <mxCell id="14" value="- phoneNumber ⚡string" style="text;align=left;verticalAlign=middle;spacingLeft=4;spacingRight=4;overflow=hidden;rotatable=0;points=[[0,0.5],[1,0.5]];portConstraint=eastwest;fontSize=16;" vertex="1" parent="10">
                    <mxGeometry y="86" width="305" height="26" as="geometry"/>
                </mxCell>
                <mxCell id="15" value="-  isDeleted ⚡ boolean" style="text;align=left;verticalAlign=top;spacingLeft=4;spacingRight=4;overflow=hidden;rotatable=0;points=[[0,0.5],[1,0.5]];portConstraint=eastwest;fontSize=16;" vertex="1" parent="10">
                    <mxGeometry y="112" width="305" height="26" as="geometry"/>
                </mxCell>
                <mxCell id="16" value="&lt;div&gt;Main Admin Fig: 08&lt;/div&gt;" style="shape=note;whiteSpace=wrap;html=1;backgroundOutline=1;darkOpacity=0.05;fontSize=16;" vertex="1" parent="2">
                    <mxGeometry x="10" y="430" width="320" height="40" as="geometry"/>
                </mxCell>
            </root>
        </mxGraphModel>
    </diagram>
</mxfile>